  0
SECTION
  2
HEADER
  9
$ACADVER
  1
AC1009
  9
$INSUNITS
 70
     1
  0
ENDSEC
  0
SECTION
  2
TABLES
  0
TABLE
  2
LAYER
 70
     8
  0
LAYER
  2
0
 62
     7
 70
0
  6
CONTINUOUS
  0
LAYER
  2
1
 62
     1
 70
0
  6
CONTINUOUS
  0
LAYER
  2
2
 62
     2
 70
0
  6
CONTINUOUS
  0
LAYER
  2
3
 62
     3
 70
0
  6
CONTINUOUS
  0
LAYER
  2
4
 62
     4
 70
0
  6
CONTINUOUS
  0
LAYER
  2
5
 62
     5
 70
0
  6
CONTINUOUS
  0
LAYER
  2
6
 62
     6
 70
0
  6
CONTINUOUS
  0
LAYER
  2
7
 62
     7
 70
0
  6
CONTINUOUS
  0
ENDTAB
  0
TABLE
  2
STYLE
 70
     1
  0
STYLE
 70
     0
  2
STANDARD
  3
TXT
 40
0.00
 41
1.00
 42
1.00
 50
0.00
 71
     0
  0
ENDTAB
  0
ENDSEC
  0
SECTION
  2
BLOCKS
  0
BLOCK
  8
0
  2
EPAD
 70
0
 10
0.0
 20
0.0
  0
POLYLINE
  8
0
 66
1
 70
1
 40
0.5
 41
0.5
  0
VERTEX
  8
0
 10
-0.25
 20
0.0
 42
1.0
  0
VERTEX
  8
0
 10
0.25
 20
0.0
 42
1.0
  0
SEQEND
  8
0
  0
ENDBLK
  8
0
  0
BLOCK
  8
0
  2
RPAD
 70
0
 10
0.0
 20
0.0
  0
TRACE
  8
0
 10
-0.5
 20
-0.5
 11
-0.5
 21
0.5
 12
0.5
 22
-0.5
 13
0.5
 23
0.5
  0
ENDBLK
  8
0
  0
ENDSEC
0
SECTION
2
ENTITIES
0
POLYLINE
8
0
66
1
40
0.016000
41
0.016000
0
VERTEX
8
0
10
-1.600000
20
-0.100000
0
VERTEX
8
0
10
-1.600000
20
-0.900000
0
SEQEND
8
0
0
POLYLINE
8
0
66
1
40
0.016000
41
0.016000
0
VERTEX
8
0
10
-1.600000
20
-1.100000
0
VERTEX
8
0
10
-1.600000
20
-0.900000
0
SEQEND
8
0
0
POLYLINE
8
0
66
1
40
0.016000
41
0.016000
0
VERTEX
8
0
10
-2.800000
20
-0.700000
0
VERTEX
8
0
10
-2.800000
20
-0.900000
0
VERTEX
8
0
10
-1.600000
20
-0.900000
0
SEQEND
8
0
0
POLYLINE
8
0
66
1
40
0.016000
41
0.016000
0
VERTEX
8
0
10
-2.100000
20
0.100000
0
VERTEX
8
0
10
-2.800000
20
0.100000
0
SEQEND
8
0
0
POLYLINE
8
0
66
1
40
0.016000
41
0.016000
0
VERTEX
8
0
10
-2.800000
20
-0.200000
0
VERTEX
8
0
10
-2.800000
20
0.100000
0
SEQEND
8
0
0
POLYLINE
8
0
66
1
40
0.016000
41
0.016000
0
VERTEX
8
0
10
-3.700000
20
0.300000
0
VERTEX
8
0
10
-3.700000
20
0.100000
0
VERTEX
8
0
10
-2.800000
20
0.100000
0
SEQEND
8
0
0
POLYLINE
8
0
66
1
40
0.016000
41
0.016000
0
VERTEX
8
0
10
3.800000
20
0.500000
0
VERTEX
8
0
10
3.800000
20
1.100000
0
SEQEND
8
0
0
POLYLINE
8
0
66
1
40
0.016000
41
0.016000
0
VERTEX
8
0
10
3.800000
20
-0.100000
0
VERTEX
8
0
10
3.800000
20
-0.800000
0
SEQEND
8
0
0
POLYLINE
8
0
66
1
40
0.016000
41
0.016000
0
VERTEX
8
0
10
3.800000
20
-0.900000
0
VERTEX
8
0
10
3.800000
20
-0.800000
0
SEQEND
8
0
0
POLYLINE
8
0
66
1
40
0.016000
41
0.016000
0
VERTEX
8
0
10
3.100000
20
-0.800000
0
VERTEX
8
0
10
3.800000
20
-0.800000
0
SEQEND
8
0
0
POLYLINE
8
0
66
1
40
0.016000
41
0.016000
0
VERTEX
8
0
10
1.500000
20
0.500000
0
VERTEX
8
0
10
1.500000
20
0.800000
0
SEQEND
8
0
0
POLYLINE
8
0
66
1
40
0.016000
41
0.016000
0
VERTEX
8
0
10
3.300000
20
0.100000
0
VERTEX
8
0
10
3.100000
20
0.100000
0
SEQEND
8
0
0
POLYLINE
8
0
66
1
40
0.016000
41
0.016000
0
VERTEX
8
0
10
3.100000
20
-0.300000
0
VERTEX
8
0
10
3.100000
20
0.100000
0
SEQEND
8
0
0
POLYLINE
8
0
66
1
40
0.016000
41
0.016000
0
VERTEX
8
0
10
2.000000
20
0.100000
0
VERTEX
8
0
10
2.300000
20
0.100000
0
SEQEND
8
0
0
POLYLINE
8
0
66
1
40
0.016000
41
0.016000
0
VERTEX
8
0
10
3.100000
20
0.100000
0
VERTEX
8
0
10
2.300000
20
0.100000
0
SEQEND
8
0
0
POLYLINE
8
0
66
1
40
0.016000
41
0.016000
0
VERTEX
8
0
10
2.200000
20
-0.400000
0
VERTEX
8
0
10
2.300000
20
-0.400000
0
VERTEX
8
0
10
2.300000
20
0.100000
0
SEQEND
8
0
0
POLYLINE
8
0
66
1
40
0.016000
41
0.016000
0
VERTEX
8
0
10
1.200000
20
0.200000
0
VERTEX
8
0
10
0.800000
20
0.200000
0
VERTEX
8
0
10
0.800000
20
0.300000
0
SEQEND
8
0
0
POLYLINE
8
0
66
1
40
0.016000
41
0.016000
0
VERTEX
8
0
10
1.700000
20
-0.400000
0
VERTEX
8
0
10
1.200000
20
-0.400000
0
VERTEX
8
0
10
1.200000
20
0.000000
0
VERTEX
8
0
10
1.200000
20
0.000000
0
SEQEND
8
0
0
POLYLINE
8
0
66
1
40
0.016000
41
0.016000
0
VERTEX
8
0
10
1.100000
20
0.000000
0
VERTEX
8
0
10
1.200000
20
0.000000
0
SEQEND
8
0
0
POLYLINE
8
0
66
1
40
0.016000
41
0.016000
0
VERTEX
8
0
10
1.500000
20
-0.300000
0
VERTEX
8
0
10
1.500000
20
-0.800000
0
SEQEND
8
0
0
POLYLINE
8
0
66
1
40
0.016000
41
0.016000
0
VERTEX
8
0
10
1.500000
20
-1.000000
0
VERTEX
8
0
10
1.500000
20
-0.800000
0
SEQEND
8
0
0
POLYLINE
8
0
66
1
40
0.016000
41
0.016000
0
VERTEX
8
0
10
0.600000
20
0.000000
0
VERTEX
8
0
10
0.400000
20
0.000000
0
VERTEX
8
0
10
0.400000
20
-0.800000
0
VERTEX
8
0
10
1.500000
20
-0.800000
0
SEQEND
8
0
0
POLYLINE
8
0
66
1
40
0.016000
41
0.016000
0
VERTEX
8
0
10
3.800000
20
2.000000
0
VERTEX
8
0
10
3.800000
20
1.900000
0
VERTEX
8
0
10
3.800000
20
1.600000
0
SEQEND
8
0
0
POLYLINE
8
0
66
1
40
0.016000
41
0.016000
0
VERTEX
8
0
10
3.800000
20
1.900000
0
VERTEX
8
0
10
3.400000
20
1.900000
0
VERTEX
8
0
10
3.400000
20
2.100000
0
SEQEND
8
0
0
POLYLINE
8
0
66
1
40
0.016000
41
0.016000
0
VERTEX
8
0
10
3.800000
20
2.600000
0
VERTEX
8
0
10
3.800000
20
2.700000
0
VERTEX
8
0
10
3.800000
20
2.900000
0
SEQEND
8
0
0
POLYLINE
8
0
66
1
40
0.016000
41
0.016000
0
VERTEX
8
0
10
3.800000
20
2.700000
0
VERTEX
8
0
10
3.400000
20
2.700000
0
VERTEX
8
0
10
3.400000
20
2.400000
0
SEQEND
8
0
0
POLYLINE
8
0
66
1
40
0.016000
41
0.016000
0
VERTEX
8
0
10
-1.600000
20
1.600000
0
VERTEX
8
0
10
-1.600000
20
1.700000
0
VERTEX
8
0
10
-1.600000
20
2.200000
0
SEQEND
8
0
0
POLYLINE
8
0
66
1
40
0.016000
41
0.016000
0
VERTEX
8
0
10
-1.600000
20
1.700000
0
VERTEX
8
0
10
-2.000000
20
1.700000
0
VERTEX
8
0
10
-2.000000
20
1.400000
0
SEQEND
8
0
0
POLYLINE
8
0
66
1
40
0.016000
41
0.016000
0
VERTEX
8
0
10
-1.600000
20
0.500000
0
VERTEX
8
0
10
-1.600000
20
0.700000
0
VERTEX
8
0
10
-1.600000
20
1.000000
0
SEQEND
8
0
0
POLYLINE
8
0
66
1
40
0.016000
41
0.016000
0
VERTEX
8
0
10
-2.000000
20
1.100000
0
VERTEX
8
0
10
-2.000000
20
0.700000
0
VERTEX
8
0
10
-1.600000
20
0.700000
0
SEQEND
8
0
0
CIRCLE
8
0
10
-1.730000
20
0.200000
40
0.230000
0
POLYLINE
8
0
66
1
40
0.016000
41
0.016000
0
VERTEX
8
0
10
-1.800000
20
0.200000
0
VERTEX
8
0
10
-1.700000
20
0.230000
0
VERTEX
8
0
10
-1.700000
20
0.170000
0
VERTEX
8
0
10
-1.800000
20
0.200000
0
SEQEND
8
0
0
POLYLINE
8
0
66
1
40
0.016000
41
0.016000
0
VERTEX
8
0
10
-1.850000
20
0.050000
0
VERTEX
8
0
10
-1.800000
20
0.050000
0
VERTEX
8
0
10
-1.800000
20
0.350000
0
VERTEX
8
0
10
-1.850000
20
0.350000
0
VERTEX
8
0
10
-1.850000
20
0.050000
0
SEQEND
8
0
0
POLYLINE
8
0
66
1
40
0.016000
41
0.016000
0
VERTEX
8
0
10
-1.900000
20
0.300000
0
VERTEX
8
0
10
-1.900000
20
0.100000
0
SEQEND
8
0
0
POLYLINE
8
0
66
1
40
0.016000
41
0.016000
0
VERTEX
8
0
10
-2.000000
20
0.100000
0
VERTEX
8
0
10
-1.900000
20
0.100000
0
SEQEND
8
0
0
POLYLINE
8
0
66
1
40
0.016000
41
0.016000
0
VERTEX
8
0
10
-1.800000
20
0.300000
0
VERTEX
8
0
10
-1.700000
20
0.300000
0
SEQEND
8
0
0
POLYLINE
8
0
66
1
40
0.016000
41
0.016000
0
VERTEX
8
0
10
-1.800000
20
0.100000
0
VERTEX
8
0
10
-1.700000
20
0.100000
0
SEQEND
8
0
0
POLYLINE
8
0
66
1
40
0.016000
41
0.016000
0
VERTEX
8
0
10
-1.700000
20
0.200000
0
VERTEX
8
0
10
-1.660000
20
0.200000
0
SEQEND
8
0
0
POLYLINE
8
0
66
1
40
0.016000
41
0.016000
0
VERTEX
8
0
10
-1.700000
20
0.100000
0
VERTEX
8
0
10
-1.600000
20
0.100000
0
SEQEND
8
0
0
POLYLINE
8
0
66
1
40
0.016000
41
0.016000
0
VERTEX
8
0
10
-1.600000
20
0.300000
0
VERTEX
8
0
10
-1.700000
20
0.300000
0
SEQEND
8
0
0
POLYLINE
8
0
66
1
40
0.016000
41
0.016000
0
VERTEX
8
0
10
-1.660000
20
0.200000
0
VERTEX
8
0
10
-1.660000
20
0.100000
0
SEQEND
8
0
0
POLYLINE
8
0
66
1
40
0.016000
41
0.016000
0
VERTEX
8
0
10
-1.630000
20
0.170000
0
VERTEX
8
0
10
-1.570000
20
0.170000
0
VERTEX
8
0
10
-1.600000
20
0.220000
0
VERTEX
8
0
10
-1.630000
20
0.170000
0
SEQEND
8
0
0
POLYLINE
8
0
66
1
40
0.016000
41
0.016000
0
VERTEX
8
0
10
-1.630000
20
0.230000
0
VERTEX
8
0
10
-1.570000
20
0.230000
0
VERTEX
8
0
10
-1.550000
20
0.210000
0
SEQEND
8
0
0
POLYLINE
8
0
66
1
40
0.016000
41
0.016000
0
VERTEX
8
0
10
-1.650000
20
0.250000
0
VERTEX
8
0
10
-1.630000
20
0.230000
0
SEQEND
8
0
0
POLYLINE
8
0
66
1
40
0.016000
41
0.016000
0
VERTEX
8
0
10
-1.600000
20
0.300000
0
VERTEX
8
0
10
-1.600000
20
0.230000
0
SEQEND
8
0
0
POLYLINE
8
0
66
1
40
0.016000
41
0.016000
0
VERTEX
8
0
10
-1.600000
20
0.170000
0
VERTEX
8
0
10
-1.600000
20
0.100000
0
SEQEND
8
0
0
POLYLINE
8
0
66
1
40
0.016000
41
0.016000
0
VERTEX
8
0
10
-1.600000
20
0.300000
0
VERTEX
8
0
10
-1.600000
20
0.390000
0
SEQEND
8
0
0
POLYLINE
8
0
66
1
40
0.016000
41
0.016000
0
VERTEX
8
0
10
-1.600000
20
0.100000
0
VERTEX
8
0
10
-1.600000
20
0.000000
0
SEQEND
8
0
0
POLYLINE
8
0
66
1
40
0.016000
41
0.016000
0
VERTEX
8
0
10
-1.600000
20
0.500000
0
VERTEX
8
0
10
-1.600000
20
0.400000
0
SEQEND
8
0
0
POLYLINE
8
0
66
1
40
0.016000
41
0.016000
0
VERTEX
8
0
10
-2.100000
20
0.100000
0
VERTEX
8
0
10
-2.000000
20
0.100000
0
SEQEND
8
0
0
POLYLINE
8
0
66
1
40
0.016000
41
0.016000
0
VERTEX
8
0
10
-1.600000
20
-0.100000
0
VERTEX
8
0
10
-1.600000
20
0.000000
0
SEQEND
8
0
0
TEXT
8
0
10
-1.442000
20
0.303000
40
0.120000
41
0.666667
1
Q1
0
TEXT
8
0
10
-1.442000
20
0.198000
40
0.080000
41
1.000000
1
IRLZ44N
0
POLYLINE
8
0
66
1
40
0.016000
41
0.016000
0
VERTEX
8
0
10
-1.600000
20
1.500000
0
VERTEX
8
0
10
-1.581348
20
1.498672
0
VERTEX
8
0
10
-1.563281
20
1.495000
0
VERTEX
8
0
10
-1.546387
20
1.489453
0
VERTEX
8
0
10
-1.531250
20
1.482500
0
VERTEX
8
0
10
-1.518457
20
1.474609
0
VERTEX
8
0
10
-1.508594
20
1.466250
0
VERTEX
8
0
10
-1.502246
20
1.457891
0
VERTEX
8
0
10
-1.500000
20
1.450000
0
SEQEND
8
0
0
POLYLINE
8
0
66
1
40
0.016000
41
0.016000
0
VERTEX
8
0
10
-1.600000
20
1.400000
0
VERTEX
8
0
10
-1.581348
20
1.400918
0
VERTEX
8
0
10
-1.563281
20
1.403594
0
VERTEX
8
0
10
-1.546387
20
1.407910
0
VERTEX
8
0
10
-1.531250
20
1.413750
0
VERTEX
8
0
10
-1.518457
20
1.420996
0
VERTEX
8
0
10
-1.508594
20
1.429531
0
VERTEX
8
0
10
-1.502246
20
1.439238
0
VERTEX
8
0
10
-1.500000
20
1.450000
0
SEQEND
8
0
0
POLYLINE
8
0
66
1
40
0.016000
41
0.016000
0
VERTEX
8
0
10
-1.600000
20
1.400000
0
VERTEX
8
0
10
-1.581348
20
1.398672
0
VERTEX
8
0
10
-1.563281
20
1.395000
0
VERTEX
8
0
10
-1.546387
20
1.389453
0
VERTEX
8
0
10
-1.531250
20
1.382500
0
VERTEX
8
0
10
-1.518457
20
1.374609
0
VERTEX
8
0
10
-1.508594
20
1.366250
0
VERTEX
8
0
10
-1.502246
20
1.357891
0
VERTEX
8
0
10
-1.500000
20
1.350000
0
SEQEND
8
0
0
POLYLINE
8
0
66
1
40
0.016000
41
0.016000
0
VERTEX
8
0
10
-1.600000
20
1.300000
0
VERTEX
8
0
10
-1.581348
20
1.300918
0
VERTEX
8
0
10
-1.563281
20
1.303594
0
VERTEX
8
0
10
-1.546387
20
1.307910
0
VERTEX
8
0
10
-1.531250
20
1.313750
0
VERTEX
8
0
10
-1.518457
20
1.320996
0
VERTEX
8
0
10
-1.508594
20
1.329531
0
VERTEX
8
0
10
-1.502246
20
1.339238
0
VERTEX
8
0
10
-1.500000
20
1.350000
0
SEQEND
8
0
0
POLYLINE
8
0
66
1
40
0.016000
41
0.016000
0
VERTEX
8
0
10
-1.600000
20
1.300000
0
VERTEX
8
0
10
-1.581348
20
1.299082
0
VERTEX
8
0
10
-1.563281
20
1.296406
0
VERTEX
8
0
10
-1.546387
20
1.292090
0
VERTEX
8
0
10
-1.531250
20
1.286250
0
VERTEX
8
0
10
-1.518457
20
1.279004
0
VERTEX
8
0
10
-1.508594
20
1.270469
0
VERTEX
8
0
10
-1.502246
20
1.260762
0
VERTEX
8
0
10
-1.500000
20
1.250000
0
SEQEND
8
0
0
POLYLINE
8
0
66
1
40
0.016000
41
0.016000
0
VERTEX
8
0
10
-1.600000
20
1.200000
0
VERTEX
8
0
10
-1.581348
20
1.201328
0
VERTEX
8
0
10
-1.563281
20
1.205000
0
VERTEX
8
0
10
-1.546387
20
1.210547
0
VERTEX
8
0
10
-1.531250
20
1.217500
0
VERTEX
8
0
10
-1.518457
20
1.225391
0
VERTEX
8
0
10
-1.508594
20
1.233750
0
VERTEX
8
0
10
-1.502246
20
1.242109
0
VERTEX
8
0
10
-1.500000
20
1.250000
0
SEQEND
8
0
0
POLYLINE
8
0
66
1
40
0.016000
41
0.016000
0
VERTEX
8
0
10
-1.600000
20
1.200000
0
VERTEX
8
0
10
-1.581348
20
1.199082
0
VERTEX
8
0
10
-1.563281
20
1.196406
0
VERTEX
8
0
10
-1.546387
20
1.192090
0
VERTEX
8
0
10
-1.531250
20
1.186250
0
VERTEX
8
0
10
-1.518457
20
1.179004
0
VERTEX
8
0
10
-1.508594
20
1.170469
0
VERTEX
8
0
10
-1.502246
20
1.160762
0
VERTEX
8
0
10
-1.500000
20
1.150000
0
SEQEND
8
0
0
POLYLINE
8
0
66
1
40
0.016000
41
0.016000
0
VERTEX
8
0
10
-1.600000
20
1.100000
0
VERTEX
8
0
10
-1.581348
20
1.101328
0
VERTEX
8
0
10
-1.563281
20
1.105000
0
VERTEX
8
0
10
-1.546387
20
1.110547
0
VERTEX
8
0
10
-1.531250
20
1.117500
0
VERTEX
8
0
10
-1.518457
20
1.125391
0
VERTEX
8
0
10
-1.508594
20
1.133750
0
VERTEX
8
0
10
-1.502246
20
1.142109
0
VERTEX
8
0
10
-1.500000
20
1.150000
0
SEQEND
8
0
0
POLYLINE
8
0
66
1
40
0.016000
41
0.016000
0
VERTEX
8
0
10
-1.600000
20
1.600000
0
VERTEX
8
0
10
-1.600000
20
1.500000
0
SEQEND
8
0
0
POLYLINE
8
0
66
1
40
0.016000
41
0.016000
0
VERTEX
8
0
10
-1.600000
20
1.000000
0
VERTEX
8
0
10
-1.600000
20
1.100000
0
SEQEND
8
0
0
TEXT
8
0
10
-1.442000
20
1.373000
40
0.120000
41
0.666667
1
SOLENOID VALVE
0
POLYLINE
8
0
66
1
40
0.016000
41
0.016000
0
VERTEX
8
0
10
-1.650000
20
2.300000
0
VERTEX
8
0
10
-1.600000
20
2.400000
0
VERTEX
8
0
10
-1.550000
20
2.300000
0
VERTEX
8
0
10
-1.650000
20
2.300000
0
SEQEND
8
0
0
POLYLINE
8
0
66
1
40
0.016000
41
0.016000
0
VERTEX
8
0
10
-1.600000
20
2.200000
0
VERTEX
8
0
10
-1.600000
20
2.400000
0
SEQEND
8
0
0
TEXT
8
0
10
-1.700000
20
2.460000
40
0.080000
41
1.000000
1
12v from buck convertor
0
POLYLINE
8
0
66
1
40
0.016000
41
0.016000
0
VERTEX
8
0
10
-1.600000
20
-1.100000
0
VERTEX
8
0
10
-1.600000
20
-1.200000
0
SEQEND
8
0
0
POLYLINE
8
0
66
1
40
0.016000
41
0.016000
0
VERTEX
8
0
10
-1.700000
20
-1.200000
0
VERTEX
8
0
10
-1.500000
20
-1.200000
0
SEQEND
8
0
0
POLYLINE
8
0
66
1
40
0.016000
41
0.016000
0
VERTEX
8
0
10
-1.650000
20
-1.250000
0
VERTEX
8
0
10
-1.550000
20
-1.250000
0
SEQEND
8
0
0
POLYLINE
8
0
66
1
40
0.016000
41
0.016000
0
VERTEX
8
0
10
-1.610000
20
-1.300000
0
VERTEX
8
0
10
-1.590000
20
-1.300000
0
SEQEND
8
0
0
TEXT
8
0
10
-1.700000
20
-1.440000
40
0.080000
41
1.000000
1
buck negative output pin
0
POLYLINE
8
0
66
1
40
0.016000
41
0.016000
0
VERTEX
8
0
10
-2.840000
20
-0.600000
0
VERTEX
8
0
10
-2.760000
20
-0.600000
0
VERTEX
8
0
10
-2.760000
20
-0.300000
0
VERTEX
8
0
10
-2.840000
20
-0.300000
0
VERTEX
8
0
10
-2.840000
20
-0.600000
0
SEQEND
8
0
0
POLYLINE
8
0
66
1
40
0.016000
41
0.016000
0
VERTEX
8
0
10
-2.800000
20
-0.200000
0
VERTEX
8
0
10
-2.800000
20
-0.300000
0
SEQEND
8
0
0
POLYLINE
8
0
66
1
40
0.016000
41
0.016000
0
VERTEX
8
0
10
-2.800000
20
-0.700000
0
VERTEX
8
0
10
-2.800000
20
-0.600000
0
SEQEND
8
0
0
TEXT
8
0
10
-2.702000
20
-0.427000
40
0.120000
41
0.666667
1
R1
0
TEXT
8
0
10
-2.702000
20
-0.532000
40
0.080000
41
1.000000
1
10k
0
CIRCLE
8
0
10
-1.600000
20
-0.900000
40
0.020000
0
POLYLINE
8
0
66
1
40
0.016000
41
0.016000
0
VERTEX
8
0
10
-3.750000
20
0.400000
0
VERTEX
8
0
10
-3.700000
20
0.500000
0
VERTEX
8
0
10
-3.650000
20
0.400000
0
VERTEX
8
0
10
-3.750000
20
0.400000
0
SEQEND
8
0
0
POLYLINE
8
0
66
1
40
0.016000
41
0.016000
0
VERTEX
8
0
10
-3.700000
20
0.300000
0
VERTEX
8
0
10
-3.700000
20
0.500000
0
SEQEND
8
0
0
TEXT
8
0
10
-3.800000
20
0.560000
40
0.080000
41
1.000000
1
3.3v from stm32
0
CIRCLE
8
0
10
-2.800000
20
0.100000
40
0.020000
0
CIRCLE
8
0
10
3.670000
20
0.200000
40
0.230000
0
POLYLINE
8
0
66
1
40
0.016000
41
0.016000
0
VERTEX
8
0
10
3.600000
20
0.200000
0
VERTEX
8
0
10
3.700000
20
0.230000
0
VERTEX
8
0
10
3.700000
20
0.170000
0
VERTEX
8
0
10
3.600000
20
0.200000
0
SEQEND
8
0
0
POLYLINE
8
0
66
1
40
0.016000
41
0.016000
0
VERTEX
8
0
10
3.550000
20
0.050000
0
VERTEX
8
0
10
3.600000
20
0.050000
0
VERTEX
8
0
10
3.600000
20
0.350000
0
VERTEX
8
0
10
3.550000
20
0.350000
0
VERTEX
8
0
10
3.550000
20
0.050000
0
SEQEND
8
0
0
POLYLINE
8
0
66
1
40
0.016000
41
0.016000
0
VERTEX
8
0
10
3.500000
20
0.300000
0
VERTEX
8
0
10
3.500000
20
0.100000
0
SEQEND
8
0
0
POLYLINE
8
0
66
1
40
0.016000
41
0.016000
0
VERTEX
8
0
10
3.400000
20
0.100000
0
VERTEX
8
0
10
3.500000
20
0.100000
0
SEQEND
8
0
0
POLYLINE
8
0
66
1
40
0.016000
41
0.016000
0
VERTEX
8
0
10
3.600000
20
0.300000
0
VERTEX
8
0
10
3.700000
20
0.300000
0
SEQEND
8
0
0
POLYLINE
8
0
66
1
40
0.016000
41
0.016000
0
VERTEX
8
0
10
3.600000
20
0.100000
0
VERTEX
8
0
10
3.700000
20
0.100000
0
SEQEND
8
0
0
POLYLINE
8
0
66
1
40
0.016000
41
0.016000
0
VERTEX
8
0
10
3.700000
20
0.200000
0
VERTEX
8
0
10
3.740000
20
0.200000
0
SEQEND
8
0
0
POLYLINE
8
0
66
1
40
0.016000
41
0.016000
0
VERTEX
8
0
10
3.700000
20
0.100000
0
VERTEX
8
0
10
3.800000
20
0.100000
0
SEQEND
8
0
0
POLYLINE
8
0
66
1
40
0.016000
41
0.016000
0
VERTEX
8
0
10
3.800000
20
0.300000
0
VERTEX
8
0
10
3.700000
20
0.300000
0
SEQEND
8
0
0
POLYLINE
8
0
66
1
40
0.016000
41
0.016000
0
VERTEX
8
0
10
3.740000
20
0.200000
0
VERTEX
8
0
10
3.740000
20
0.100000
0
SEQEND
8
0
0
POLYLINE
8
0
66
1
40
0.016000
41
0.016000
0
VERTEX
8
0
10
3.770000
20
0.170000
0
VERTEX
8
0
10
3.830000
20
0.170000
0
VERTEX
8
0
10
3.800000
20
0.220000
0
VERTEX
8
0
10
3.770000
20
0.170000
0
SEQEND
8
0
0
POLYLINE
8
0
66
1
40
0.016000
41
0.016000
0
VERTEX
8
0
10
3.770000
20
0.230000
0
VERTEX
8
0
10
3.830000
20
0.230000
0
VERTEX
8
0
10
3.850000
20
0.210000
0
SEQEND
8
0
0
POLYLINE
8
0
66
1
40
0.016000
41
0.016000
0
VERTEX
8
0
10
3.750000
20
0.250000
0
VERTEX
8
0
10
3.770000
20
0.230000
0
SEQEND
8
0
0
POLYLINE
8
0
66
1
40
0.016000
41
0.016000
0
VERTEX
8
0
10
3.800000
20
0.300000
0
VERTEX
8
0
10
3.800000
20
0.230000
0
SEQEND
8
0
0
POLYLINE
8
0
66
1
40
0.016000
41
0.016000
0
VERTEX
8
0
10
3.800000
20
0.170000
0
VERTEX
8
0
10
3.800000
20
0.100000
0
SEQEND
8
0
0
POLYLINE
8
0
66
1
40
0.016000
41
0.016000
0
VERTEX
8
0
10
3.800000
20
0.300000
0
VERTEX
8
0
10
3.800000
20
0.390000
0
SEQEND
8
0
0
POLYLINE
8
0
66
1
40
0.016000
41
0.016000
0
VERTEX
8
0
10
3.800000
20
0.100000
0
VERTEX
8
0
10
3.800000
20
0.000000
0
SEQEND
8
0
0
POLYLINE
8
0
66
1
40
0.016000
41
0.016000
0
VERTEX
8
0
10
3.800000
20
0.500000
0
VERTEX
8
0
10
3.800000
20
0.400000
0
SEQEND
8
0
0
POLYLINE
8
0
66
1
40
0.016000
41
0.016000
0
VERTEX
8
0
10
3.300000
20
0.100000
0
VERTEX
8
0
10
3.400000
20
0.100000
0
SEQEND
8
0
0
POLYLINE
8
0
66
1
40
0.016000
41
0.016000
0
VERTEX
8
0
10
3.800000
20
-0.100000
0
VERTEX
8
0
10
3.800000
20
0.000000
0
SEQEND
8
0
0
TEXT
8
0
10
3.958000
20
0.303000
40
0.120000
41
0.666667
1
Q2
0
TEXT
8
0
10
3.958000
20
0.198000
40
0.080000
41
1.000000
1
IRLZ44N
0
POLYLINE
8
0
66
1
40
0.016000
41
0.016000
0
VERTEX
8
0
10
3.800000
20
2.500000
0
VERTEX
8
0
10
3.818652
20
2.498672
0
VERTEX
8
0
10
3.836719
20
2.495000
0
VERTEX
8
0
10
3.853613
20
2.489453
0
VERTEX
8
0
10
3.868750
20
2.482500
0
VERTEX
8
0
10
3.881543
20
2.474609
0
VERTEX
8
0
10
3.891406
20
2.466250
0
VERTEX
8
0
10
3.897754
20
2.457891
0
VERTEX
8
0
10
3.900000
20
2.450000
0
SEQEND
8
0
0
POLYLINE
8
0
66
1
40
0.016000
41
0.016000
0
VERTEX
8
0
10
3.800000
20
2.400000
0
VERTEX
8
0
10
3.818652
20
2.400918
0
VERTEX
8
0
10
3.836719
20
2.403594
0
VERTEX
8
0
10
3.853613
20
2.407910
0
VERTEX
8
0
10
3.868750
20
2.413750
0
VERTEX
8
0
10
3.881543
20
2.420996
0
VERTEX
8
0
10
3.891406
20
2.429531
0
VERTEX
8
0
10
3.897754
20
2.439238
0
VERTEX
8
0
10
3.900000
20
2.450000
0
SEQEND
8
0
0
POLYLINE
8
0
66
1
40
0.016000
41
0.016000
0
VERTEX
8
0
10
3.800000
20
2.400000
0
VERTEX
8
0
10
3.818652
20
2.398672
0
VERTEX
8
0
10
3.836719
20
2.395000
0
VERTEX
8
0
10
3.853613
20
2.389453
0
VERTEX
8
0
10
3.868750
20
2.382500
0
VERTEX
8
0
10
3.881543
20
2.374609
0
VERTEX
8
0
10
3.891406
20
2.366250
0
VERTEX
8
0
10
3.897754
20
2.357891
0
VERTEX
8
0
10
3.900000
20
2.350000
0
SEQEND
8
0
0
POLYLINE
8
0
66
1
40
0.016000
41
0.016000
0
VERTEX
8
0
10
3.800000
20
2.300000
0
VERTEX
8
0
10
3.818652
20
2.300918
0
VERTEX
8
0
10
3.836719
20
2.303594
0
VERTEX
8
0
10
3.853613
20
2.307910
0
VERTEX
8
0
10
3.868750
20
2.313750
0
VERTEX
8
0
10
3.881543
20
2.320996
0
VERTEX
8
0
10
3.891406
20
2.329531
0
VERTEX
8
0
10
3.897754
20
2.339238
0
VERTEX
8
0
10
3.900000
20
2.350000
0
SEQEND
8
0
0
POLYLINE
8
0
66
1
40
0.016000
41
0.016000
0
VERTEX
8
0
10
3.800000
20
2.300000
0
VERTEX
8
0
10
3.818652
20
2.299082
0
VERTEX
8
0
10
3.836719
20
2.296406
0
VERTEX
8
0
10
3.853613
20
2.292090
0
VERTEX
8
0
10
3.868750
20
2.286250
0
VERTEX
8
0
10
3.881543
20
2.279004
0
VERTEX
8
0
10
3.891406
20
2.270469
0
VERTEX
8
0
10
3.897754
20
2.260762
0
VERTEX
8
0
10
3.900000
20
2.250000
0
SEQEND
8
0
0
POLYLINE
8
0
66
1
40
0.016000
41
0.016000
0
VERTEX
8
0
10
3.800000
20
2.200000
0
VERTEX
8
0
10
3.818652
20
2.201328
0
VERTEX
8
0
10
3.836719
20
2.205000
0
VERTEX
8
0
10
3.853613
20
2.210547
0
VERTEX
8
0
10
3.868750
20
2.217500
0
VERTEX
8
0
10
3.881543
20
2.225390
0
VERTEX
8
0
10
3.891406
20
2.233750
0
VERTEX
8
0
10
3.897754
20
2.242110
0
VERTEX
8
0
10
3.900000
20
2.250000
0
SEQEND
8
0
0
POLYLINE
8
0
66
1
40
0.016000
41
0.016000
0
VERTEX
8
0
10
3.800000
20
2.200000
0
VERTEX
8
0
10
3.818652
20
2.199082
0
VERTEX
8
0
10
3.836719
20
2.196406
0
VERTEX
8
0
10
3.853613
20
2.192090
0
VERTEX
8
0
10
3.868750
20
2.186250
0
VERTEX
8
0
10
3.881543
20
2.179004
0
VERTEX
8
0
10
3.891406
20
2.170469
0
VERTEX
8
0
10
3.897754
20
2.160762
0
VERTEX
8
0
10
3.900000
20
2.150000
0
SEQEND
8
0
0
POLYLINE
8
0
66
1
40
0.016000
41
0.016000
0
VERTEX
8
0
10
3.800000
20
2.100000
0
VERTEX
8
0
10
3.818652
20
2.101328
0
VERTEX
8
0
10
3.836719
20
2.105000
0
VERTEX
8
0
10
3.853613
20
2.110547
0
VERTEX
8
0
10
3.868750
20
2.117500
0
VERTEX
8
0
10
3.881543
20
2.125391
0
VERTEX
8
0
10
3.891406
20
2.133750
0
VERTEX
8
0
10
3.897754
20
2.142109
0
VERTEX
8
0
10
3.900000
20
2.150000
0
SEQEND
8
0
0
POLYLINE
8
0
66
1
40
0.016000
41
0.016000
0
VERTEX
8
0
10
3.800000
20
2.600000
0
VERTEX
8
0
10
3.800000
20
2.500000
0
SEQEND
8
0
0
POLYLINE
8
0
66
1
40
0.016000
41
0.016000
0
VERTEX
8
0
10
3.800000
20
2.000000
0
VERTEX
8
0
10
3.800000
20
2.100000
0
SEQEND
8
0
0
TEXT
8
0
10
3.958000
20
2.373000
40
0.120000
41
0.666667
1
IGNITION COIL
0
POLYLINE
8
0
66
1
40
0.016000
41
0.016000
0
VERTEX
8
0
10
3.060000
20
-0.700000
0
VERTEX
8
0
10
3.140000
20
-0.700000
0
VERTEX
8
0
10
3.140000
20
-0.400000
0
VERTEX
8
0
10
3.060000
20
-0.400000
0
VERTEX
8
0
10
3.060000
20
-0.700000
0
SEQEND
8
0
0
POLYLINE
8
0
66
1
40
0.016000
41
0.016000
0
VERTEX
8
0
10
3.100000
20
-0.300000
0
VERTEX
8
0
10
3.100000
20
-0.400000
0
SEQEND
8
0
0
POLYLINE
8
0
66
1
40
0.016000
41
0.016000
0
VERTEX
8
0
10
3.100000
20
-0.800000
0
VERTEX
8
0
10
3.100000
20
-0.700000
0
SEQEND
8
0
0
TEXT
8
0
10
3.198000
20
-0.527000
40
0.120000
41
0.666667
1
R2
0
TEXT
8
0
10
3.198000
20
-0.632000
40
0.080000
41
1.000000
1
10k
0
POLYLINE
8
0
66
1
40
0.016000
41
0.016000
0
VERTEX
8
0
10
3.760000
20
1.200000
0
VERTEX
8
0
10
3.840000
20
1.200000
0
VERTEX
8
0
10
3.840000
20
1.500000
0
VERTEX
8
0
10
3.760000
20
1.500000
0
VERTEX
8
0
10
3.760000
20
1.200000
0
SEQEND
8
0
0
POLYLINE
8
0
66
1
40
0.016000
41
0.016000
0
VERTEX
8
0
10
3.800000
20
1.600000
0
VERTEX
8
0
10
3.800000
20
1.500000
0
SEQEND
8
0
0
POLYLINE
8
0
66
1
40
0.016000
41
0.016000
0
VERTEX
8
0
10
3.800000
20
1.100000
0
VERTEX
8
0
10
3.800000
20
1.200000
0
SEQEND
8
0
0
TEXT
8
0
10
3.898000
20
1.373000
40
0.120000
41
0.666667
1
R3
0
TEXT
8
0
10
3.898000
20
1.268000
40
0.080000
41
1.000000
1
1.7
0
POLYLINE
8
0
66
1
40
0.016000
41
0.016000
0
VERTEX
8
0
10
3.800000
20
-0.900000
0
VERTEX
8
0
10
3.800000
20
-1.000000
0
SEQEND
8
0
0
POLYLINE
8
0
66
1
40
0.016000
41
0.016000
0
VERTEX
8
0
10
3.700000
20
-1.000000
0
VERTEX
8
0
10
3.900000
20
-1.000000
0
SEQEND
8
0
0
POLYLINE
8
0
66
1
40
0.016000
41
0.016000
0
VERTEX
8
0
10
3.750000
20
-1.050000
0
VERTEX
8
0
10
3.850000
20
-1.050000
0
SEQEND
8
0
0
POLYLINE
8
0
66
1
40
0.016000
41
0.016000
0
VERTEX
8
0
10
3.790000
20
-1.100000
0
VERTEX
8
0
10
3.810000
20
-1.100000
0
SEQEND
8
0
0
TEXT
8
0
10
3.700000
20
-1.240000
40
0.080000
41
1.000000
1
battery negative terminal
0
CIRCLE
8
0
10
3.800000
20
-0.800000
40
0.020000
0
POLYLINE
8
0
66
1
40
0.016000
41
0.016000
0
VERTEX
8
0
10
3.750000
20
3.000000
0
VERTEX
8
0
10
3.800000
20
3.100000
0
VERTEX
8
0
10
3.850000
20
3.000000
0
VERTEX
8
0
10
3.750000
20
3.000000
0
SEQEND
8
0
0
POLYLINE
8
0
66
1
40
0.016000
41
0.016000
0
VERTEX
8
0
10
3.800000
20
2.900000
0
VERTEX
8
0
10
3.800000
20
3.100000
0
SEQEND
8
0
0
TEXT
8
0
10
3.700000
20
3.160000
40
0.080000
41
1.000000
1
12v from battery
0
POLYLINE
8
0
66
1
40
0.016000
41
0.016000
0
VERTEX
8
0
10
1.400000
20
0.350000
0
VERTEX
8
0
10
1.400000
20
-0.150000
0
VERTEX
8
0
10
1.800000
20
0.100000
0
VERTEX
8
0
10
1.400000
20
0.350000
0
SEQEND
8
0
0
POLYLINE
8
0
66
1
40
0.016000
41
0.016000
0
VERTEX
8
0
10
1.450000
20
0.000000
0
VERTEX
8
0
10
1.510000
20
0.000000
0
SEQEND
8
0
0
POLYLINE
8
0
66
1
40
0.016000
41
0.016000
0
VERTEX
8
0
10
1.450000
20
0.200000
0
VERTEX
8
0
10
1.510000
20
0.200000
0
SEQEND
8
0
0
POLYLINE
8
0
66
1
40
0.016000
41
0.016000
0
VERTEX
8
0
10
1.480000
20
0.230000
0
VERTEX
8
0
10
1.480000
20
0.170000
0
SEQEND
8
0
0
POLYLINE
8
0
66
1
40
0.016000
41
0.016000
0
VERTEX
8
0
10
1.200000
20
0.200000
0
VERTEX
8
0
10
1.400000
20
0.200000
0
SEQEND
8
0
0
TEXT
8
0
10
1.220000
20
0.210000
40
0.080000
41
1.000000
1
3
0
POLYLINE
8
0
66
1
40
0.016000
41
0.016000
0
VERTEX
8
0
10
1.200000
20
0.000000
0
VERTEX
8
0
10
1.400000
20
0.000000
0
SEQEND
8
0
0
TEXT
8
0
10
1.220000
20
0.010000
40
0.080000
41
1.000000
1
4
0
POLYLINE
8
0
66
1
40
0.016000
41
0.016000
0
VERTEX
8
0
10
2.000000
20
0.100000
0
VERTEX
8
0
10
1.800000
20
0.100000
0
SEQEND
8
0
0
TEXT
8
0
10
1.900000
20
0.110000
40
0.080000
41
1.000000
1
1
0
POLYLINE
8
0
66
1
40
0.016000
41
0.016000
0
VERTEX
8
0
10
1.500000
20
0.500000
0
VERTEX
8
0
10
1.500000
20
0.300000
0
SEQEND
8
0
0
TEXT
8
0
10
1.490000
20
0.400000
40
0.080000
41
1.000000
50
90.000000
1
5
0
POLYLINE
8
0
66
1
40
0.016000
41
0.016000
0
VERTEX
8
0
10
1.500000
20
-0.300000
0
VERTEX
8
0
10
1.500000
20
-0.100000
0
SEQEND
8
0
0
TEXT
8
0
10
1.490000
20
-0.280000
40
0.080000
41
1.000000
50
90.000000
1
2
0
TEXT
8
0
10
1.808004
20
0.473000
40
0.120000
41
0.666667
1
U1
0
TEXT
8
0
10
1.808004
20
-0.348000
40
0.080000
41
1.000000
1
LM358
0
POLYLINE
8
0
66
1
40
0.016000
41
0.016000
0
VERTEX
8
0
10
1.450000
20
0.900000
0
VERTEX
8
0
10
1.500000
20
1.000000
0
VERTEX
8
0
10
1.550000
20
0.900000
0
VERTEX
8
0
10
1.450000
20
0.900000
0
SEQEND
8
0
0
POLYLINE
8
0
66
1
40
0.016000
41
0.016000
0
VERTEX
8
0
10
1.500000
20
0.800000
0
VERTEX
8
0
10
1.500000
20
1.000000
0
SEQEND
8
0
0
TEXT
8
0
10
1.400000
20
1.060000
40
0.080000
41
1.000000
1
12v from buck convertor
0
POLYLINE
8
0
66
1
40
0.016000
41
0.016000
0
VERTEX
8
0
10
1.500000
20
-1.000000
0
VERTEX
8
0
10
1.500000
20
-1.100000
0
SEQEND
8
0
0
POLYLINE
8
0
66
1
40
0.016000
41
0.016000
0
VERTEX
8
0
10
1.400000
20
-1.100000
0
VERTEX
8
0
10
1.600000
20
-1.100000
0
SEQEND
8
0
0
POLYLINE
8
0
66
1
40
0.016000
41
0.016000
0
VERTEX
8
0
10
1.450000
20
-1.150000
0
VERTEX
8
0
10
1.550000
20
-1.150000
0
SEQEND
8
0
0
POLYLINE
8
0
66
1
40
0.016000
41
0.016000
0
VERTEX
8
0
10
1.490000
20
-1.200000
0
VERTEX
8
0
10
1.510000
20
-1.200000
0
SEQEND
8
0
0
TEXT
8
0
10
1.400000
20
-1.340000
40
0.080000
41
1.000000
1
buck negative output pin
0
POLYLINE
8
0
66
1
40
0.016000
41
0.016000
0
VERTEX
8
0
10
1.800000
20
-0.440000
0
VERTEX
8
0
10
2.100000
20
-0.440000
0
VERTEX
8
0
10
2.100000
20
-0.360000
0
VERTEX
8
0
10
1.800000
20
-0.360000
0
VERTEX
8
0
10
1.800000
20
-0.440000
0
SEQEND
8
0
0
POLYLINE
8
0
66
1
40
0.016000
41
0.016000
0
VERTEX
8
0
10
2.200000
20
-0.400000
0
VERTEX
8
0
10
2.100000
20
-0.400000
0
SEQEND
8
0
0
POLYLINE
8
0
66
1
40
0.016000
41
0.016000
0
VERTEX
8
0
10
1.700000
20
-0.400000
0
VERTEX
8
0
10
1.800000
20
-0.400000
0
SEQEND
8
0
0
TEXT
8
0
10
1.792000
20
-0.337000
40
0.120000
41
0.666667
1
R4
0
TEXT
8
0
10
1.792000
20
-0.538000
40
0.080000
41
1.000000
1
2.7k
0
CIRCLE
8
0
10
3.100000
20
0.100000
40
0.020000
0
CIRCLE
8
0
10
2.300000
20
0.100000
40
0.020000
0
POLYLINE
8
0
66
1
40
0.016000
41
0.016000
0
VERTEX
8
0
10
0.750000
20
0.400000
0
VERTEX
8
0
10
0.800000
20
0.500000
0
VERTEX
8
0
10
0.850000
20
0.400000
0
VERTEX
8
0
10
0.750000
20
0.400000
0
SEQEND
8
0
0
POLYLINE
8
0
66
1
40
0.016000
41
0.016000
0
VERTEX
8
0
10
0.800000
20
0.300000
0
VERTEX
8
0
10
0.800000
20
0.500000
0
SEQEND
8
0
0
TEXT
8
0
10
-0.060000
20
0.560000
40
0.080000
41
1.000000
1
3.3V Vin from stm32
0
POLYLINE
8
0
66
1
40
0.016000
41
0.016000
0
VERTEX
8
0
10
0.700000
20
-0.040000
0
VERTEX
8
0
10
1.000000
20
-0.040000
0
VERTEX
8
0
10
1.000000
20
0.040000
0
VERTEX
8
0
10
0.700000
20
0.040000
0
VERTEX
8
0
10
0.700000
20
-0.040000
0
SEQEND
8
0
0
POLYLINE
8
0
66
1
40
0.016000
41
0.016000
0
VERTEX
8
0
10
1.100000
20
0.000000
0
VERTEX
8
0
10
1.000000
20
0.000000
0
SEQEND
8
0
0
POLYLINE
8
0
66
1
40
0.016000
41
0.016000
0
VERTEX
8
0
10
0.600000
20
0.000000
0
VERTEX
8
0
10
0.700000
20
0.000000
0
SEQEND
8
0
0
TEXT
8
0
10
0.692000
20
0.063000
40
0.120000
41
0.666667
1
R5
0
TEXT
8
0
10
0.692000
20
-0.138000
40
0.080000
41
1.000000
1
1k
0
CIRCLE
8
0
10
1.200000
20
0.000000
40
0.020000
0
CIRCLE
8
0
10
1.500000
20
-0.800000
40
0.020000
0
TEXT
8
0
10
-4.000000
20
2.510000
40
0.080000
41
1.000000
1
Switching circuit for both solenoid valves
0
POLYLINE
8
0
66
1
40
0.016000
41
0.016000
0
VERTEX
8
0
10
-2.100000
20
1.200000
0
VERTEX
8
0
10
-1.900000
20
1.200000
0
VERTEX
8
0
10
-2.000000
20
1.300000
0
VERTEX
8
0
10
-2.100000
20
1.200000
0
SEQEND
8
0
0
POLYLINE
8
0
66
1
40
0.016000
41
0.016000
0
VERTEX
8
0
10
-2.100000
20
1.300000
0
VERTEX
8
0
10
-1.900000
20
1.300000
0
SEQEND
8
0
0
POLYLINE
8
0
66
1
40
0.016000
41
0.016000
0
VERTEX
8
0
10
-2.000000
20
1.100000
0
VERTEX
8
0
10
-2.000000
20
1.200000
0
SEQEND
8
0
0
POLYLINE
8
0
66
1
40
0.016000
41
0.016000
0
VERTEX
8
0
10
-2.000000
20
1.400000
0
VERTEX
8
0
10
-2.000000
20
1.300000
0
SEQEND
8
0
0
TEXT
8
0
10
-1.842000
20
1.173000
40
0.120000
41
0.666667
1
D1
0
TEXT
8
0
10
-1.842000
20
1.068000
40
0.080000
41
1.000000
1
1N4001
0
POLYLINE
8
0
66
1
40
0.016000
41
0.016000
0
VERTEX
8
0
10
3.300000
20
2.200000
0
VERTEX
8
0
10
3.500000
20
2.200000
0
VERTEX
8
0
10
3.400000
20
2.300000
0
VERTEX
8
0
10
3.300000
20
2.200000
0
SEQEND
8
0
0
POLYLINE
8
0
66
1
40
0.016000
41
0.016000
0
VERTEX
8
0
10
3.300000
20
2.300000
0
VERTEX
8
0
10
3.500000
20
2.300000
0
SEQEND
8
0
0
POLYLINE
8
0
66
1
40
0.016000
41
0.016000
0
VERTEX
8
0
10
3.400000
20
2.100000
0
VERTEX
8
0
10
3.400000
20
2.200000
0
SEQEND
8
0
0
POLYLINE
8
0
66
1
40
0.016000
41
0.016000
0
VERTEX
8
0
10
3.400000
20
2.400000
0
VERTEX
8
0
10
3.400000
20
2.300000
0
SEQEND
8
0
0
TEXT
8
0
10
3.558000
20
2.173000
40
0.120000
41
0.666667
1
D2
0
TEXT
8
0
10
3.558000
20
2.068000
40
0.080000
41
1.000000
1
1N4001
0
CIRCLE
8
0
10
3.800000
20
1.900000
40
0.020000
0
CIRCLE
8
0
10
3.800000
20
2.700000
40
0.020000
0
CIRCLE
8
0
10
-1.600000
20
1.700000
40
0.020000
0
CIRCLE
8
0
10
-1.600000
20
0.700000
40
0.020000
0
ENDSEC
0
EOF

